<?xml version="1.0" encoding="utf-8"?>
<!-- Generator: Adobe Illustrator 24.0.1, SVG Export Plug-In . SVG Version: 6.00 Build 0)  -->
<svg version="1.1" id="Layer_2_1_" xmlns="http://www.w3.org/2000/svg" xmlns:xlink="http://www.w3.org/1999/xlink" x="0px" y="0px"
	 viewBox="0 0 841.9 493.7" style="enable-background:new 0 0 841.9 493.7;" xml:space="preserve">
<style type="text/css">
	.st0{fill:#013b70;}
	.st1{fill:none;}
</style>
<title>ATP_Tour_RGB_Stacked_Mono_POS</title>
<path class="st0" d="M284.6,80.1L328.4,290h-63.3l-9.3-45h-76.4l-26.9,45H82.3l29.1-45l-70.2-0.1l206.9-37.5l-6.5-30.2l0,0
	l-5.5-27.1l-11.5,19.2l13.3,4.9h-80.7l60.8-94L284.6,80.1z M680.6,80.1H527.5c0.6,0.7,1.1,1.4,1.4,2.2c0.6,1.7,1,3.5,1.2,5.3
	c0.5,3.1,1.1,3.5,0.8,5.9c-0.7,4.5-1.5,4.1-2.9,6.8c-1.1,2.2-1.9,4.4-2.5,6.7c0,0.1,0,0.2,0.1,0.2c0,0,0,0,0.1,0
	c0.5,0,1.5,0.1,1.6,1.6c0.1,2-2.3,6-3,7.2s-2.2,3.5-3.4,4.2c-2.2,1.3-2.8,0.5-3.2,1.2s-2.5,4.8-2.8,5.9c-0.4,1.4-0.6,2.9-0.7,4.4
	c0,0.2,0.1,0.4,0.3,0.5c4.4,1.7,15.8,5.8,18.6,10.5l-38.7,12.6c5.4-0.6,11.4-1.4,16.6-2c7.2-0.8,18.9-2.1,22.6-2.1
	c3.2,0.2,6.5,0.6,9.7,1.2c4.5,0.6,8.6,0.8,13.5,1.8c2.7,0.4,5.2,1.6,7.2,3.4c0.2,0.1,1.2,0.9,1.2,0.9c6-0.4,15.2-1,17.2-1.2
	c1-0.1,3-0.2,3.4-0.2c18.6-2.4,28.8-11.3,37.7-16.7c9.8-6,24.6-10.9,35.2-11.2c13.7-0.4,23.5,2,30.1,7.9s9.1,13.8,6.5,25.7
	c-2.5,11.5-6.2,16.8-14.7,22s-17.8,6.9-28.8,5.9c-18.4-1.7-34.8-13.2-41.3-16.9c-5.6-3.2-13.2-6.6-21.9-7.4c-1.7-0.1-3.4-0.1-5.1,0
	c-0.6,0-7.6,0.5-12,0.9c0.3,1.1,0.5,2.2,0.6,3.3c-0.1,2.2-1.4,3.3-2.8,3.1s-4.4-2.5-5.3-4.5c-0.1-0.2-0.4-0.3-0.4,0s0,0.7,0,1
	c-0.1,0.6-0.4,2.5-1.8,2.9c-1.4,0.3-2.9-0.1-4.1-1c-0.3-0.2-0.7-0.1-0.9,0.2c0,0,0,0.1-0.1,0.1c-0.5,1.4-0.8,2.2-3.3,1.7
	c-1.8-0.2-1.4,0.5-2.5,0.7c-2.8,0.5-4.1-0.9-6.3-1.9s-1.5-3.1-3.6-3.4c-0.4-0.1-1.2-0.2-1.6-0.3c1.6,5.1,2.7,10.4,3.5,15.8
	c0,0.2-0.1,0.4-0.3,0.4c0,0,0,0,0,0l-2.2,0.3c-0.2,0-0.3,0.2-0.3,0.4c0,0,0,0,0,0c0.5,2.9,1.9,8.2,2.2,12.1c0.5,7,0.5,9.1,0,12.6
	c0,0.2,0.1,0.4,0.3,0.4c0,0,0.1,0,0.1,0c0.9-0.2,1.8-0.5,2.6-1c0.1-1.4,0.3-2.8,0.8-4.1c0.2-0.3,0.5-0.6,0.7-0.9
	c0.2-0.2,0.3-0.4,0.4-0.7l0.6-2c0.1-0.3,0.2-0.6,0.4-0.9l3-5.5c0,0,0.7-1.5,1.9-1.2c1.2,0.6,1.9,1.8,2,3.2c-0.2,1.6-0.7,3.2-1.5,4.6
	l1.3,2.1c1.6,0.4,3.3,0.1,4.6-0.9c0.7-0.4,1.3-0.9,1.9-1.4c-0.6-1.5,0.8-3.5,4.5-2.8c1.3,0.5,4.9,3.4,0.4,6.4
	c-0.1,0.1-0.1,0.2-0.1,0.3c0,0.1,0.1,0.1,0.2,0.1c4.9-0.3,4.3,5.6,1,7.4c-0.3,0.1-0.4,0.5-0.2,0.7c0,0,0,0,0,0.1
	c0.7,0.9,1.1,2,1.1,3.2c0,0,0,1.6-4.8,3.2c0,0-1.5,0.6-0.9,1.7c0.6,0.2,1.2,0.4,2,0.7c0,0,4.3,1,3.5,3.4c0,0-0.7,2-4.8,0.7
	c-1.3,0.1-2.7,0-4-0.1c-2.6,0.8-5.2,1.5-7.8,1.9c-0.9,0.2-1.6,0.6-2.2,1.3l0,0c-2.7,3-10.8,7.2-14.4,7.3c-4,0-4.5-3.1-7.5-6.1
	c-5.7-5.9-6.7-13.4-7.5-20.8c0-0.2-0.3-0.4-0.5-0.4c-0.2,0-0.3,0.2-0.4,0.4c-1,8.7-1.5,16.4-6.3,20.7c-2.9,2.6-7.5,4.7-14.9,6.4
	c-28.2,6.7-58.5,24-55.1,27.9c1.4,1.6,4.5-1.5,10.1-4.1c21-9.7,48.2-11.6,57-10.9c0.6,0.1,1.1,0.6,1.2,1.2c0.3,2.1,0.7,4.2,1.4,6.2
	c0.8,2.7,1.6,7.5,4.5,10.2c5.2,4.9,4.5,6.7,3.3,13.3c-0.8,4.3,5.1,7.9,5.2,8h60.6L595,245h61.5c62.9,0,90.8-28.7,101.5-83.7
	C763,135.7,762.8,80.1,680.6,80.1z M410.3,290c0.9-0.9,1.8-2,3-3.2c2.6-2.7,0.6-9.6,1.1-12.2c0.7-3.5,6.6-5.3,7.6-8.7
	c1.3-4.6-7.9-3.8-3.5-8.7c2.7-3.1,6.7-2,6.4-5c-0.4-4.9,4.3-8.2,6.3-9.7c8.7-6.6,28.2-17,40.1-20.5c12.4-3.6-4.7-3.3-18.8,1.9
	c-12.9,4.7,16.6-13.8,39.9-19.6c16.6-4.2-12.2-5-38.8,6.7c-8.4,3.7-13.1,6-16.5,8.2c-0.1,0-0.2,0-0.2-0.1c0,0,0-0.1,0-0.1
	c1.3-2.7,4.1-7.3,3.3-12.1c-0.6-3-0.2-6.2,1.1-9c1-1.9,0.4-7,1.5-9.7c0.1-0.2,0.3-0.3,0.5-0.2l14.3,4.5l55.7-19l-53.1,7.9
	l-18.4-15.7c-2.6-2.8-5.3-13.6-2.6-17.7c2.8-4.2,6-8.1,9.6-11.7c2.5-2.2,10.2-3.1,14-5c4.2-2.1,7.6-0.7,10.6-1.2
	c3.3-0.8,6.5-1.8,9.7-3c0.1,0,0.1-0.1,0.1-0.2c0-1.2-0.1-2.5-0.3-3.7c-0.8-3.3-1.2-6.8-1-10.2c0.3-3.3,3.2-6.2,3.3-8.4
	s-1.5-4.5-0.2-6.6c1.1-2,1.4-3.6,2.7-7.8c-0.3-2.5-1.9-3.4-0.8-5.9c0.6-1.3,1.6-3.3,2.1-4.2H295l11.1,53.2h76.4l-8.4,40.9h57.6
	l-117.6,21.3l55.6-0.1L350.3,290H410.3z M615.1,168.4c1,0.5,2.2,0,2.7-1c0.2-0.3,0.2-0.7,0.2-1c0.1-5.3,1-7.7,2.1-11.9
	c0.5-1.7-1-3.1-2.4-2.3c-8.6,4.6-14.8,6.6-18.5,7.4c-0.6,0.2-1.1,0.7-1.1,1.4c0,0.6,0.3,1.1,0.8,1.3
	C604.5,163.6,609.9,165.7,615.1,168.4z"/>
<path class="st0" d="M378.1,325.5h-35.3l3.5-16.7h90.4l-3.7,16.7h-35.3l-18.7,89.7h-19.8L378.1,325.5z"/>
<path class="st0" d="M548.5,380.2c0.1-3.8,0.5-7.7,1.3-11.4l12.6-60.1h19.8l-12.6,59.8c-0.6,3.1-1,6.3-1.2,9.4
	c-0.1,14.5,9.7,21.4,24.7,21.4c16.9,0,28.5-9.3,33.1-31l12.4-59.6h19.5l-12.8,61c-6.5,31.3-25.8,47-54.4,47
	C564.9,416.7,548.3,402.7,548.5,380.2z"/>
<path class="st0" d="M728.1,381.4l18.7,33.8h-21L708.6,384h-29.1l-6.4,31.2h-19.9l22.3-106.5h44c25.7,0,40.3,11.9,40.2,32.1
	C759.5,361.5,747.8,376,728.1,381.4z M739.7,342.6c0.1-11.6-8-17.2-22.5-17.2H692l-9,42.3h26.2C728.4,367.7,739.6,359.1,739.7,342.6
	z"/>
<path class="st0" d="M537.8,361.9c-1.1,7.2-3.2,14.2-6.3,20.7c-3.4,7.1-8.3,13.5-14.2,18.8c-5.9,5.2-12.8,9.2-20.3,11.7
	c-6.8,2.3-14,3.5-21.2,3.4c-6.9,0.1-13.8-1.1-20.3-3.4c-6.5-2.4-12.4-6.4-16.9-11.7c-4.4-5.4-7.4-11.9-8.7-18.8
	c-1.2-6.9-1.3-13.9-0.3-20.8c1.1-7.2,3.2-14.2,6.3-20.8c3.5-7.1,8.3-13.5,14.2-18.8c5.9-5.2,12.8-9.2,20.3-11.7
	c6.8-2.3,14-3.4,21.2-3.4c6.9-0.1,13.8,1.1,20.3,3.4c6.5,2.4,12.3,6.4,16.8,11.7c4.4,5.4,7.4,11.9,8.7,18.8
	C538.8,348,538.9,355,537.8,361.9z M518.2,361.9c1.4-10.4,0.5-20.1-4.6-27c-2.6-3.5-6.1-6.3-10.1-7.9c-4.5-1.8-9.4-2.7-14.2-2.7
	c-5.1,0-10.2,0.9-15,2.7c-4.6,1.8-8.9,4.5-12.4,8c-7,6.8-10.8,16.6-12.4,26.9c-1.5,10.3-0.5,20.1,4.5,26.9c2.6,3.5,6.1,6.2,10.1,7.9
	c4.5,1.8,9.3,2.7,14.2,2.7c5.1,0,10.2-0.9,15-2.7c4.6-1.8,8.9-4.5,12.4-7.9C512.8,382,516.6,372.2,518.2,361.9L518.2,361.9z"/>
<path class="st0" d="M734.8,281.2h-3.5l0.4-2h9.4l-0.4,2h-3.5l-1.8,8.8H733L734.8,281.2z M754.7,279.2l-2.1,10.8h-2.3l1.3-6.4
	l-4.1,5.3h-1.1l-2.2-5.4l-1.3,6.5h-2.3l2.2-10.8h2l2.7,6.7l5.3-6.7L754.7,279.2z"/>
<rect class="st1" width="841.9" height="493.7"/>
</svg>
