<svg xmlns="http://www.w3.org/2000/svg" viewBox="0 0 674.82 180"><path fill="#7814ff" d="M476.75 61.58h-51.11c-2 0-3.34 1.14-3.34 3s1.24 3 3.34 3h22.17v57.69a3.29 3.29 0 106.57 0v-57.7h22.37c2.09 0 3.42-1.14 3.42-3s-1.33-3-3.42-3m36 67.86c19.79 0 32.83-13.7 32.83-34.55 0-20.18-13.61-34.55-32.83-34.55s-32.84 14.28-32.84 34.55c0 20.85 13 34.55 32.84 34.55m.09-5.9c-15.89 0-26.36-11.42-26.36-28.65 0-16.75 10.94-28.65 26.36-28.65s26.27 11.9 26.27 28.65c0 17.23-10.37 28.65-26.27 28.65m70 5.9c16.84 0 27.69-10.37 27.69-26.46V64.53a3.22 3.22 0 00-3.33-3.43 3.1 3.1 0 00-3.23 3.43v37.79c0 12.85-7.62 21.13-21.13 21.13s-21.13-8.38-21.13-21.23V64.53a3.29 3.29 0 10-6.57 0V103c0 16 10.85 26.46 27.7 26.46m90.7-6.57l-21.41-22.46h3.23c11.14 0 18.85-7.9 18.85-19.51 0-11.42-7.71-19.32-18.85-19.32h-31.28a3.3 3.3 0 00-3.61 3.4v60.25a3.29 3.29 0 106.57 0v-24.84h16.65l25.13 26.94a3.68 3.68 0 002.86 1.33 3.08 3.08 0 003.14-3 3.81 3.81 0 00-1.34-2.86M627 67.48h27.6c8 0 12.94 5.14 12.94 13.42 0 8.47-4.85 13.61-12.94 13.61H627zM389.78 112a7.9 7.9 0 00-8.26 7.88 8.07 8.07 0 008 8.24 8.22 8.22 0 008.16-8.15 8 8 0 00-7.9-7.97z"/><path fill="#7814ff" d="M420.89 115.54q-11.82-24.32-23.54-48.69c-1.57-3.25-4.05-5.27-7.69-5.27s-6.25 2.07-7.87 5.45q-11.6 24.1-23.28 48.17a15.78 15.78 0 00-1.05 2.69 8.13 8.13 0 0014.16 7.19 15.52 15.52 0 001.76-3q7.38-15.17 14.72-30.34c.41-.85.86-1.68 1.53-3 .55 1.07.83 1.58 1.08 2.1q6.07 12.56 12.16 25.12c1.31 2.7 2.55 5.45 4 8.07a8.12 8.12 0 0014.7-1.48 8.91 8.91 0 00-.68-7.01zM369.1 70.3a8.14 8.14 0 00-5.1-8.07 11.29 11.29 0 00-4-.67c-14.06-.05-43.64 0-43.64 0a8.14 8.14 0 00-7.16 7.6 8 8 0 004.29 7.75 7.81 7.81 0 003.5.77h11.31s-18.85 38.4-19.26 39.58a8 8 0 002.47 8.93 8.16 8.16 0 009 1 9.52 9.52 0 004.12-4.73q6-12.57 12.15-25.13c2.87-5.93 9.28-19.62 9.28-19.62s14.15.15 16.33 0c3.77-.3 6.37-3.64 6.71-7.41zm-78.53-8.48c-3 .75-4.78 2.7-6.07 5.39-5 10.41-10 20.79-15.07 31.18-.36.74-.81 1.44-1.38 2.43-.64-1.25-1.14-2.16-1.6-3.1L251.87 67.6a19.56 19.56 0 00-1.22-2.31 8.16 8.16 0 00-13.72 0 20.28 20.28 0 00-1.22 2.31q-7.29 15.06-14.58 30.11c-.44.91-1 1.79-1.66 3.08-.71-1.36-1.17-2.19-1.59-3l-14.46-29.88a23.29 23.29 0 00-1.36-2.57 8.16 8.16 0 00-14.15 8.07c8 16.72 16.07 33.38 24.17 50a7.81 7.81 0 007.49 4.64 8 8 0 007.41-4.76c.22-.44 16.21-33.33 16.86-34.57 1.7 3.47 12.58 26 16.57 34.15 1.79 3.68 4.72 5.5 8.31 5.18s5.76-2.39 7.26-5.51q11.53-24 23.15-47.95a16.62 16.62 0 001.24-3.25 8.17 8.17 0 00-9.8-9.52zM174 93c-.94-14.17-3.28-22.91-9.4-34.66a84.07 84.07 0 00-24.73-28.67 2.85 2.85 0 01-.38-.32c.41-2.57 1.32-6.84 3.2-9.66 2.84-4.27 7.59-9.33 7.9-11.7s-1.11-4.29-1.42-5.69c-.53-2.37-2.1-2.66-3.11-1.95a21.92 21.92 0 00-3.37 3.59c-1.16 1.4-2.21 2.55-2.81 3.19a9.18 9.18 0 000-1.84C139.6 2.93 138 3 137.46 3.75c-.28.37.16 2.58-1.28 4.82-1.22 1.91-1.16 3.86-1 6a18.27 18.27 0 01-1.4 8.42c-.27.66-.57 1.36-.89 2.09 0 0-6.66 14.81-7.72 21.41-.4 3.25.12 4.93-.36 6.49-1 3.15-7.52 16-10.91 22.35-2.5 4.67-4.87 9.55-4.28 15.06a9.92 9.92 0 01.05 1.49 3.15 3.15 0 01-3.23 3c-3.41-.11-4.68-4.29-3.83-7.79.53-2.21 2-4.13.72-5.81s-3.75-.92-6.86-.08c-3.36.92-6.45 1.71-9.38-.86s-5.32-5.16-14.38-2.58c-1.48.42-.45-5.74 3.7-7.15a7.06 7.06 0 00-2.17-.18 15.27 15.27 0 00-8.75 3.83 14.27 14.27 0 00-4.62 9 19.17 19.17 0 003 13.4c-3.12 1.54-4.33 3.42-6 5.9-.95 1.38-2.61 3.68-5.69 3.68 1 2 4 1 5.51 1.44a10.72 10.72 0 00-3.5 11.7A22.74 22.74 0 0163.3 112c1.11-.4 4-1.6 5.16-2 4-1.47 5.33-3.33 6.22-7.8a27 27 0 008.2.09c2.12-.29 3.06 1.46 5.62 2.71-1.12.59-6.8 2.88-10.08 4.7-5.59 3.09-11.87 8.5-14 14.87-.54 1.58-5.52 6.45-6.65 7.66a144.16 144.16 0 00-9.33 11.38l-.12-.08c-3.09-3.24-21.84-15.51-29.46-23.25-.08-.07-1.58-1.6-1.84-1.92a4.8 4.8 0 01-.52-2.94v-1.43c0-2-.82-4.69-2.09-5.53-.77-.52-1.27-.82-1.54-1l8.36-11.86c3.06-4.44 10.8-8.15 16.61-10 1.07-.34 9.41-2.27 14.47-5.79 9.93-6.9 18.51-19.66 27.14-26.2a51.25 51.25 0 0142.7-8.81c.58-4.1 3.89-11.19 4.47-12.43 1.18-2.53 3.29-6.57 4.3-8.47a78.76 78.76 0 00-31.13-9.68C68.46 11.42 39.91 25.57 25.41 47c-4.52 6.68-5.87 14.29-5.78 22.2.36 4.37.31 18-3.11 23.2-1.25 1.91-5.64 8.23-8.5 12.33a4.89 4.89 0 00-1.14-.29c-2.22-.31-3.35.37-4.69 2.64l-1.7 3.7a10.19 10.19 0 00-.43 1 4.12 4.12 0 00.78 3A10.09 10.09 0 005 118.65a2.26 2.26 0 001.6.25c1.23 1.93 2.26 2.1 3.4 3.1a28.9 28.9 0 014.56 5.29c4.63 5.93 9.93 13.93 18.78 22.89 3.36 3.4 9.47 8 11 9.65a4.58 4.58 0 00.47.43 3.71 3.71 0 002.77 1 6.39 6.39 0 003.19-1.1c16.08-10 25.58-25.81 25.72-26-.72-.18-2.68-1.34-3-1.37l.21-.09a8.76 8.76 0 012.67-.09h.14c5.77.33 13.83 3.06 16 4a8.16 8.16 0 013.2 2.67 86.6 86.6 0 014.67 7.68 6.63 6.63 0 01.46 5.27c-.64 1.95-8.45 17.79-10.77 24.53a18.56 18.56 0 01-1.31 3.24h.11a85.57 85.57 0 0021-2.08 76 76 0 0024.35-10c15.82-9.81 23.4-20.21 29.93-31.53 7.47-12.94 9.23-27.88 9.44-30.29A80.55 80.55 0 00174 93zM28.45 47.32C36.56 35.79 49 32.85 57.54 38.86s10 18.71 1.89 30.24-21.61 16-30.17 10a14.73 14.73 0 01-4.87-5.88c-3.33-7.1-2.02-17.22 4.06-25.9zm-5.75 29.3a16.11 16.11 0 0010.51 7.64 38.08 38.08 0 00-12.28 6.53 57.55 57.55 0 001.77-14.17zm134.76 44.71c-.88 3.24-1.6 5.17-1.6 5.17-3 8.77-7 19.61-16.91 29.52-6.27-9.44 2.11-28.52-5.94-42.31-5.65-9.69-14.41-15.32-29.54-12.09-6.73.7-7.51-.76-8.66-1.74-3.46-3.7-6.06-5.32-7.8-6 .76-.24 1.48-.49 2.16-.76a22.27 22.27 0 017.38-1.48 2.78 2.78 0 012.09.84c.18.23.38.46.58.69a5.91 5.91 0 001.44 1.33 8.75 8.75 0 005.95 1.86c4.33-.22 6.88-1 12.28.43a19.29 19.29 0 0110.43 7.21c.08-.31-3.86-8.62-2.58-16.94 1.29-5.77 2.69-11.52 4.34-17.19 1.23-4.23 1.6-8.57 2.29-12.88.11-.68.9-2.44 1.53-4.16.36-1 .57-1.87.83-2.82a51.92 51.92 0 016.58 4.34 44.45 44.45 0 018.32 8.49A48.83 48.83 0 01158 77.72a.76.76 0 010 .11c.06.21.12.42.19.63a63 63 0 012.2 12.05c.09.8.16 1.6.21 2.39a1.15 1.15 0 000 .17c.83 11.43-1.48 22.16-3.14 28.26z"/><path fill="#7814ff" d="M93.06 72.47a7.57 7.57 0 01-6.51.79 15.63 15.63 0 008.77 3 .86.86 0 00.83-.87 2.56 2.56 0 00-.12-.7c-.93-3.03-2.12-2.94-2.97-2.22z"/></svg>